<?xml version="1.0" encoding="UTF-8" standalone="no"?>
<svg
   xmlns:dc="http://purl.org/dc/elements/1.1/"
   xmlns:cc="http://creativecommons.org/ns#"
   xmlns:rdf="http://www.w3.org/1999/02/22-rdf-syntax-ns#"
   xmlns:svg="http://www.w3.org/2000/svg"
   xmlns="http://www.w3.org/2000/svg"
   xmlns:sodipodi="http://sodipodi.sourceforge.net/DTD/sodipodi-0.dtd"
   xmlns:inkscape="http://www.inkscape.org/namespaces/inkscape"
   sodipodi:docname="rehookt_logo.svg"
   inkscape:version="1.0.2 (e86c8708, 2021-01-15)"
   id="svg1043"
   version="1.1"
   viewBox="0 0 67.764908 17.733026"
   height="17.733027mm"
   width="67.764908mm">
  <defs
     id="defs1037" />
  <sodipodi:namedview
     inkscape:snap-global="true"
     fit-margin-bottom="0"
     fit-margin-right="0"
     fit-margin-left="0"
     fit-margin-top="0"
     inkscape:window-maximized="0"
     inkscape:window-y="0"
     inkscape:window-x="0"
     inkscape:window-height="1080"
     inkscape:window-width="1920"
     showgrid="false"
     inkscape:document-rotation="0"
     inkscape:current-layer="layer1"
     inkscape:document-units="px"
     inkscape:cy="22.917192"
     inkscape:cx="111.59404"
     inkscape:zoom="1.8807138"
     inkscape:pageshadow="2"
     inkscape:pageopacity="0.0"
     borderopacity="1.0"
     bordercolor="#666666"
     pagecolor="#ffffff"
     id="base" />
  <metadata
     id="metadata1040">
    <rdf:RDF>
      <cc:Work
         rdf:about="">
        <dc:format>image/svg+xml</dc:format>
        <dc:type
           rdf:resource="http://purl.org/dc/dcmitype/StillImage" />
        <dc:title></dc:title>
      </cc:Work>
    </rdf:RDF>
  </metadata>
  <g
     transform="translate(-132.09153,-153.2412)"
     id="layer1"
     inkscape:groupmode="layer"
     inkscape:label="Layer 1">
    <path
       id="rect79"
       style="fill:#ffffff;fill-opacity:1;stroke:#61dafb;stroke-width:0.830256;stroke-opacity:1"
       d="m 124.7168,-3.4902344 c -0.31315,0.01911 -0.62999,0.069807 -0.94532,0.1542969 l -6.92578,1.8554687 H 15.419922 C 9.7518556,-1.4804688 5.1894531,3.0819337 5.1894531,8.75 v 29.542969 c 0,5.668066 4.5624025,10.232422 10.2304689,10.232422 h 69.388672 l 2.859375,10.671875 c 0.675919,2.522565 3.250872,4.009903 5.773437,3.333984 L 138.20703,50.535156 c 1.18255,-0.316864 2.12516,-1.059266 2.73633,-2.009765 h 109.30273 c 5.66807,0 10.23243,-4.564356 10.23243,-10.232422 V 8.75 c 0,-5.6680663 -4.56436,-10.2304688 -10.23243,-10.2304688 H 128.83984 c -0.92698,-1.3264249 -2.47646,-2.1102504 -4.12304,-2.0097656 z"
       transform="matrix(0.26458334,0,0,0.26458334,130.82832,154.27677)" />
    <g
       aria-label="Re       t
"
       id="text835"
       style="font-style:normal;font-variant:normal;font-weight:bold;font-stretch:normal;font-size:15.7154px;line-height:1.25;font-family:'Segoe UI';-inkscape-font-specification:'Segoe UI Bold';letter-spacing:0.396875px;fill:#61dafb;fill-opacity:1;stroke:none;stroke-width:0.392886">
      <path
         d="m 138.82323,158.32385 c 0,-0.28648 -0.0588,-0.53203 -0.17649,-0.73666 -0.11766,-0.20463 -0.31973,-0.36577 -0.60621,-0.48343 -0.19951,-0.0819 -0.43228,-0.13045 -0.69829,-0.1458 -0.26602,-0.0205 -0.57552,-0.0307 -0.9285,-0.0307 h -1.06662 v 3.07708 h 0.90548 c 0.47064,0 0.86455,-0.023 1.18172,-0.0691 0.31717,-0.0461 0.58319,-0.15094 0.79805,-0.31461 0.20463,-0.15859 0.35298,-0.33252 0.44506,-0.5218 0.0972,-0.1944 0.1458,-0.45274 0.1458,-0.77503 z m 4.59645,7.92676 c -2.42857,-0.0194 -3.20547,-0.18256 -6.18518,-4.18975 h -1.88738 v 4.18975 c 0,0 -2.40212,0.004 -2.40212,-2.34939 v -6.93856 c 0,-2.13089 2.35568,-2.13794 2.35568,-2.13794 h 2.0569 c 0.67527,0 1.25591,0.0384 1.7419,0.1151 0.48599,0.0767 0.94128,0.24299 1.36589,0.49878 0.42971,0.25579 0.76991,0.58831 1.02058,0.99756 0.25578,0.40414 0.38367,0.91315 0.38367,1.52703 0,0.84409 -0.19695,1.53215 -0.59086,2.06418 -0.38879,0.53203 -0.9464,0.97454 -1.67283,1.32753 z"
         style="font-style:normal;font-variant:normal;font-weight:bold;font-stretch:normal;font-family:'Segoe UI';-inkscape-font-specification:'Segoe UI Bold';fill:#61dafb;fill-opacity:1;stroke-width:0.392886"
         id="path43"
         sodipodi:nodetypes="csccsccsscccccccccccssccsccc" />
      <path
         d="m 151.27548,162.45221 h -5.54568 c 0.0359,0.67527 0.26025,1.19196 0.67302,1.55005 1.20074,1.13294 3.38898,0.56886 4.73133,-0.45273 v 0 0 c -0.45188,2.89436 -4.76724,3.43142 -6.6427,1.76491 -0.80763,-0.77759 -1.21144,-1.88513 -1.21144,-3.32264 0,-1.42216 0.38137,-2.54761 1.14413,-3.37636 0.76725,-0.83385 1.81716,-1.25078 3.14974,-1.25078 1.22938,0 2.15366,0.35554 2.77283,1.06662 0.61919,0.70597 0.92877,1.72399 0.92877,3.05407 z m -2.4094,-1.61912 c -0.0134,-0.57807 -0.13908,-1.0129 -0.37689,-1.3045 -0.2378,-0.29159 -0.60797,-0.43739 -1.11048,-0.43739 -0.46663,0 -0.85026,0.13812 -1.15087,0.41437 -0.30062,0.27625 -0.46887,0.71875 -0.50476,1.32752 z"
         style="font-style:normal;font-variant:normal;font-weight:bold;font-stretch:normal;font-family:'Segoe UI';-inkscape-font-specification:'Segoe UI Bold';fill:#61dafb;fill-opacity:1;stroke-width:0.367945"
         id="path45"
         sodipodi:nodetypes="cccccccscscscccsscc" />
      <path
         d="m 199.04299,164.27853 c -0.65958,1.30196 -2.22342,2.81652 -4.03691,1.48869 -0.5218,-0.43483 -0.6557,-1.18685 -0.7827,-2.233 v -4.35883 h -1.66485 v -1.54212 h 1.66485 v -3.13305 c 2.22263,-0.006 2.2333,2.06264 2.2333,2.06264 v 1.07041 h 2.58598 v 1.54212 h -2.58598 v 3.38429 c 0,0.30183 0.003,0.56528 0.008,0.79037 0.005,0.22509 0.0463,0.42716 0.12278,0.60621 0.0716,0.17905 0.19695,0.32229 0.376,0.42972 0.18417,0.10231 0.45018,0.15347 0.79805,0.15347 0.14324,0 0.32996,-0.0307 0.56017,-0.0921 0.23532,-0.0614 0.39902,-0.11767 0.49111,-0.16882 z"
         style="font-style:normal;font-variant:normal;font-weight:bold;font-stretch:normal;font-family:'Segoe UI';-inkscape-font-specification:'Segoe UI Bold';fill:#61dafb;fill-opacity:1;stroke-width:0.392886"
         id="path47"
         sodipodi:nodetypes="ccsccccccccccssccsccc" />
    </g>
    <g
       id="g41"
       transform="translate(1.623419)">
      <g
         id="g967"
         transform="matrix(1.4849235,0,0,1.4849235,57.662198,-59.444524)">
        <g
           aria-label="oo"
           id="text839"
           style="font-style:normal;font-variant:normal;font-weight:bold;font-stretch:normal;font-size:10.5833px;line-height:1.25;font-family:'Segoe UI';-inkscape-font-specification:'Segoe UI Bold';fill:#000000;fill-opacity:1;stroke:none;stroke-width:0.264583">
          <path
             d="m 77.736256,149.00872 q 0,1.43143 -0.837156,2.25825 -0.831988,0.82166 -2.340935,0.82166 -1.508947,0 -2.346102,-0.82166 -0.831988,-0.82682 -0.831988,-2.25825 0,-1.44177 0.837155,-2.26342 0.842323,-0.82165 2.340935,-0.82165 1.519282,0 2.346103,0.82682 0.831988,0.82682 0.831988,2.25825 z m -2.289259,1.41076 q 0.180867,-0.2222 0.268717,-0.53226 0.09302,-0.31523 0.09302,-0.86816 0,-0.5116 -0.09302,-0.85783 -0.09302,-0.34623 -0.258382,-0.55293 -0.165364,-0.21188 -0.397907,-0.29973 -0.232543,-0.0879 -0.50126,-0.0879 -0.268716,0 -0.480589,0.0724 -0.206705,0.0724 -0.397907,0.28939 -0.170532,0.20153 -0.273885,0.55293 -0.09819,0.3514 -0.09819,0.88367 0,0.47542 0.08785,0.82682 0.08785,0.34623 0.258381,0.5581 0.165364,0.20154 0.39274,0.29456 0.232543,0.093 0.527098,0.093 0.253214,0 0.480589,-0.0827 0.232543,-0.0879 0.39274,-0.28939 z"
             style="font-style:normal;font-variant:normal;font-weight:bold;font-stretch:normal;font-family:'Segoe UI';-inkscape-font-specification:'Segoe UI Bold';stroke-width:0.264583"
             id="path50" />
          <path
             d="m 84.655914,149.00872 q 0,1.43143 -0.837155,2.25825 -0.831988,0.82166 -2.340935,0.82166 -1.508947,0 -2.346103,-0.82166 -0.831988,-0.82682 -0.831988,-2.25825 0,-1.44177 0.837156,-2.26342 0.842323,-0.82165 2.340935,-0.82165 1.519282,0 2.346102,0.82682 0.831988,0.82682 0.831988,2.25825 z m -2.289258,1.41076 q 0.180866,-0.2222 0.268716,-0.53226 0.09302,-0.31523 0.09302,-0.86816 0,-0.5116 -0.09302,-0.85783 -0.09302,-0.34623 -0.258381,-0.55293 -0.165364,-0.21188 -0.397907,-0.29973 -0.232544,-0.0879 -0.50126,-0.0879 -0.268717,0 -0.48059,0.0724 -0.206705,0.0724 -0.397907,0.28939 -0.170532,0.20153 -0.273884,0.55293 -0.09819,0.3514 -0.09819,0.88367 0,0.47542 0.08785,0.82682 0.08785,0.34623 0.258381,0.5581 0.165364,0.20154 0.39274,0.29456 0.232543,0.093 0.527098,0.093 0.253213,0 0.480589,-0.0827 0.232543,-0.0879 0.39274,-0.28939 z"
             style="font-style:normal;font-variant:normal;font-weight:bold;font-stretch:normal;font-family:'Segoe UI';-inkscape-font-specification:'Segoe UI Bold';stroke-width:0.264583"
             id="path52" />
        </g>
        <rect
           transform="rotate(-15)"
           y="157.15207"
           x="22.170467"
           height="8.8867121"
           width="8.8867121"
           id="rect933"
           style="fill:#000000;fill-opacity:1;stroke:none;stroke-width:0.132292"
           ry="0.751122" />
        <g
           style="fill:#61dafb;fill-opacity:1"
           transform="rotate(-15,43.732221,224.19348)"
           id="g931">
          <path
             id="path845"
             style="font-style:normal;font-variant:normal;font-weight:bold;font-stretch:normal;font-size:10.5833px;line-height:1.25;font-family:sans-serif;-inkscape-font-specification:'sans-serif Bold';fill:#61dafb;fill-opacity:1;stroke:none;stroke-width:0.22885"
             d="m 82.455383,161.62117 c 1.002259,0 1.787367,-0.3285 2.355314,-0.9855 0.567947,-0.65701 0.851922,-1.56279 0.851922,-2.71733 0,-1.15773 -0.283975,-2.06511 -0.851922,-2.72211 -0.567947,-0.657 -1.353055,-0.98551 -2.355314,-0.98551 v 1.33475 c 0.492777,-1e-5 0.874197,0.20731 1.144248,0.62192 0.270053,0.41461 0.405082,0.99827 0.405082,1.75095 0,0.74949 -0.135029,1.33156 -0.405082,1.74617 -0.270051,0.41461 -0.651471,0.62192 -1.144248,0.62192 z" />
          <path
             id="path872"
             style="font-style:normal;font-variant:normal;font-weight:bold;font-stretch:normal;font-size:10.5833px;line-height:1.25;font-family:'Segoe UI';-inkscape-font-specification:'Segoe UI Bold';fill:#61dafb;fill-opacity:1;stroke:none;stroke-width:0.999999"
             d="m 329.95703,599.5625 c -0.10835,-0.83509 -0.19336,-1.68895 -0.19336,-2.60742 0,-0.99457 0.0832,-1.92538 0.21094,-2.82227 h -10.77539 c 0.12869,0.90195 0.21094,1.83887 0.21094,2.83985 0,0.91208 -0.0859,1.75991 -0.19336,2.58984 z"
             transform="scale(0.26458333)" />
          <path
             d="m 89.865837,161.62117 c -1.002259,0 -1.787367,-0.3285 -2.355314,-0.9855 -0.567947,-0.65701 -0.851922,-1.56279 -0.851922,-2.71733 0,-1.15773 0.283975,-2.06511 0.851922,-2.72211 0.567947,-0.657 1.353055,-0.98551 2.355314,-0.98551 v 1.33475 c -0.492777,-1e-5 -0.874197,0.20731 -1.144248,0.62192 -0.270053,0.41461 -0.405082,0.99827 -0.405082,1.75095 0,0.74949 0.135029,1.33156 0.405082,1.74617 0.270051,0.41461 0.651471,0.62192 1.144248,0.62192 z"
             style="font-style:normal;font-variant:normal;font-weight:bold;font-stretch:normal;font-size:10.5833px;line-height:1.25;font-family:sans-serif;-inkscape-font-specification:'sans-serif Bold';fill:#61dafb;fill-opacity:1;stroke:none;stroke-width:0.22885"
             id="path1634" />
        </g>
        <path
           sodipodi:nodetypes="ccccccccccccc"
           d="m 84.470043,145.45517 v 2.85852 h -0.0093 c 0.0039,0.0271 0.0058,0.0558 0.0093,0.0832 v 1.31051 c -0.0018,0.0141 -0.0028,0.0288 -0.0047,0.0429 h 0.0047 v 2.1575 h 1.632974 v -2.1575 -1.4366 -4.24005 c -1.639927,-10e-4 -1.632974,1.38152 -1.632974,1.38152 z"
           style="font-style:normal;font-variant:normal;font-weight:bold;font-stretch:normal;font-size:10.5833px;line-height:1.25;font-family:sans-serif;-inkscape-font-specification:'sans-serif Bold';fill:#000000;fill-opacity:1;stroke:none;stroke-width:0.18716"
           id="path895" />
      </g>
      <path
         d="m 189.8134,165.96301 c -1.11461,0 -1.98774,-0.36532 -2.61937,-1.09598 -0.63161,-0.73067 -0.94743,-1.738 -0.94743,-3.02197 0,-1.28753 0.31582,-2.29664 0.94743,-3.0273 0.63163,-0.73065 1.50476,-1.09599 2.61937,-1.09599 v 1.48439 c -0.54802,-2e-5 -0.9722,0.23055 -1.27253,0.69165 -0.30031,0.46108 -0.45048,1.11018 -0.45048,1.94725 0,0.8335 0.15017,1.48084 0.45048,1.94192 0.30033,0.4611 0.72451,0.69165 1.27253,0.69165 z"
         style="font-style:normal;font-variant:normal;font-weight:bold;font-stretch:normal;font-size:10.5833px;line-height:1.25;font-family:sans-serif;-inkscape-font-specification:'sans-serif Bold';fill:#000000;fill-opacity:1;stroke:none;stroke-width:0.254507"
         id="path1634-3" />
      <path
         d="m 187.30654,162.92322 c -0.0426,-0.32809 -0.076,-0.66357 -0.076,-1.02442 0,-0.39076 0.0327,-0.75646 0.0829,-1.10884 h -4.2335 c 0.0505,0.35437 0.0829,0.72248 0.0829,1.11575 0,0.35834 -0.0337,0.69144 -0.076,1.01751 z"
         style="font-style:normal;font-variant:normal;font-weight:bold;font-stretch:normal;font-size:10.5833px;line-height:1.25;font-family:'Segoe UI';-inkscape-font-specification:'Segoe UI Bold';fill:#000000;fill-opacity:1;stroke:none;stroke-width:0.392885"
         id="path872-9" />
    </g>
  </g>
</svg>
