<?xml version="1.0" encoding="UTF-8" standalone="no"?>
<svg
   xmlns:dc="http://purl.org/dc/elements/1.1/"
   xmlns:cc="http://creativecommons.org/ns#"
   xmlns:rdf="http://www.w3.org/1999/02/22-rdf-syntax-ns#"
   xmlns:svg="http://www.w3.org/2000/svg"
   xmlns="http://www.w3.org/2000/svg"
   xmlns:sodipodi="http://sodipodi.sourceforge.net/DTD/sodipodi-0.dtd"
   xmlns:inkscape="http://www.inkscape.org/namespaces/inkscape"
   sodipodi:docname="rehook_logot.svg"
   inkscape:version="1.0 (4035a4fb49, 2020-05-01)"
   id="svg1043"
   version="1.1"
   viewBox="0 0 66.145874 16.16184"
   height="16.16184mm"
   width="66.145874mm">
  <defs
     id="defs1037" />
  <sodipodi:namedview
     inkscape:snap-global="true"
     fit-margin-bottom="0"
     fit-margin-right="0"
     fit-margin-left="0"
     fit-margin-top="0"
     inkscape:window-maximized="0"
     inkscape:window-y="0"
     inkscape:window-x="3832"
     inkscape:window-height="877"
     inkscape:window-width="1349"
     showgrid="false"
     inkscape:document-rotation="0"
     inkscape:current-layer="g967"
     inkscape:document-units="px"
     inkscape:cy="-116.81788"
     inkscape:cx="204.54595"
     inkscape:zoom="0.7"
     inkscape:pageshadow="2"
     inkscape:pageopacity="0.0"
     borderopacity="1.0"
     bordercolor="#666666"
     pagecolor="#ffffff"
     id="base" />
  <metadata
     id="metadata1040">
    <rdf:RDF>
      <cc:Work
         rdf:about="">
        <dc:format>image/svg+xml</dc:format>
        <dc:type
           rdf:resource="http://purl.org/dc/dcmitype/StillImage" />
        <dc:title></dc:title>
      </cc:Work>
    </rdf:RDF>
  </metadata>
  <g
     transform="translate(-130.42985,-154.09042)"
     id="layer1"
     inkscape:groupmode="layer"
     inkscape:label="Layer 1">
    <text
       xml:space="preserve"
       style="font-style:normal;font-variant:normal;font-weight:bold;font-stretch:normal;font-size:15.7154px;line-height:1.25;font-family:'Segoe UI';-inkscape-font-specification:'Segoe UI Bold';fill:#61dafb;fill-opacity:1;stroke:none;stroke-width:0.392886"
       x="129.17139"
       y="166.28654"
       id="text835"><tspan
         sodipodi:role="line"
         id="tspan833"
         x="129.17139"
         y="166.28654"
         style="font-style:normal;font-variant:normal;font-weight:bold;font-stretch:normal;font-family:'Segoe UI';-inkscape-font-specification:'Segoe UI Bold';fill:#61dafb;fill-opacity:1;stroke-width:0.392886">Re          t</tspan></text>
    <g
       id="g967"
       transform="matrix(1.4849235,0,0,1.4849235,57.655293,-59.380814)">
      <text
         id="text839"
         y="151.90776"
         x="70.925323"
         style="font-style:normal;font-variant:normal;font-weight:bold;font-stretch:normal;font-size:10.5833px;line-height:1.25;font-family:'Segoe UI';-inkscape-font-specification:'Segoe UI Bold';fill:#000000;fill-opacity:1;stroke:none;stroke-width:0.264583"
         xml:space="preserve"><tspan
           style="font-style:normal;font-variant:normal;font-weight:bold;font-stretch:normal;font-family:'Segoe UI';-inkscape-font-specification:'Segoe UI Bold';stroke-width:0.264583"
           y="151.90776"
           x="70.925323"
           id="tspan837"
           sodipodi:role="line">oo</tspan></text>
      <rect
         transform="rotate(-15)"
         y="156.69093"
         x="20.449385"
         height="8.8867121"
         width="8.8867121"
         id="rect933"
         style="fill:#000000;fill-opacity:1;stroke:none;stroke-width:0.132292" />
      <g
         style="fill:#61dafb;fill-opacity:1"
         transform="rotate(-15,42.841323,230.96053)"
         id="g931">
        <path
           id="path845"
           style="font-style:normal;font-variant:normal;font-weight:bold;font-stretch:normal;font-size:10.5833px;line-height:1.25;font-family:sans-serif;-inkscape-font-specification:'sans-serif Bold';fill:#61dafb;fill-opacity:1;stroke:none;stroke-width:0.22885"
           d="m 82.455383,161.62117 c 1.002259,0 1.787367,-0.3285 2.355314,-0.9855 0.567947,-0.65701 0.851922,-1.56279 0.851922,-2.71733 0,-1.15773 -0.283975,-2.06511 -0.851922,-2.72211 -0.567947,-0.657 -1.353055,-0.98551 -2.355314,-0.98551 v 1.33475 c 0.492777,-1e-5 0.874197,0.20731 1.144248,0.62192 0.270053,0.41461 0.405082,0.99827 0.405082,1.75095 0,0.74949 -0.135029,1.33156 -0.405082,1.74617 -0.270051,0.41461 -0.651471,0.62192 -1.144248,0.62192 z" />
        <path
           id="path872"
           style="font-style:normal;font-variant:normal;font-weight:bold;font-stretch:normal;font-size:10.5833px;line-height:1.25;font-family:'Segoe UI';-inkscape-font-specification:'Segoe UI Bold';fill:#61dafb;fill-opacity:1;stroke:none;stroke-width:0.999999"
           d="m 329.95703,599.5625 c -0.10835,-0.83509 -0.19336,-1.68895 -0.19336,-2.60742 0,-0.99457 0.0832,-1.92538 0.21094,-2.82227 h -10.77539 c 0.12869,0.90195 0.21094,1.83887 0.21094,2.83985 0,0.91208 -0.0859,1.75991 -0.19336,2.58984 z"
           transform="scale(0.26458333)" />
        <path
           d="m 89.865837,161.62117 c -1.002259,0 -1.787367,-0.3285 -2.355314,-0.9855 -0.567947,-0.65701 -0.851922,-1.56279 -0.851922,-2.71733 0,-1.15773 0.283975,-2.06511 0.851922,-2.72211 0.567947,-0.657 1.353055,-0.98551 2.355314,-0.98551 v 1.33475 c -0.492777,-1e-5 -0.874197,0.20731 -1.144248,0.62192 -0.270053,0.41461 -0.405082,0.99827 -0.405082,1.75095 0,0.74949 0.135029,1.33156 0.405082,1.74617 0.270051,0.41461 0.651471,0.62192 1.144248,0.62192 z"
           style="font-style:normal;font-variant:normal;font-weight:bold;font-stretch:normal;font-size:10.5833px;line-height:1.25;font-family:sans-serif;-inkscape-font-specification:'sans-serif Bold';fill:#61dafb;fill-opacity:1;stroke:none;stroke-width:0.22885"
           id="path1634" />
      </g>
      <path
         sodipodi:nodetypes="ccccccccccccc"
         d="m 84.470043,144.07364 v 4.24005 h -0.0093 c 0.0039,0.0271 0.0058,0.0558 0.0093,0.0832 v 1.31051 c -0.0018,0.0141 -0.0028,0.0288 -0.0047,0.0429 h 0.0047 v 2.1575 h 1.632974 v -2.1575 -1.4366 -4.24005 z"
         style="font-style:normal;font-variant:normal;font-weight:bold;font-stretch:normal;font-size:10.5833px;line-height:1.25;font-family:sans-serif;-inkscape-font-specification:'sans-serif Bold';fill:#000000;fill-opacity:1;stroke:none;stroke-width:0.18716"
         id="path895" />
    </g>
    <path
       d="m 189.8134,165.96301 c -1.11461,0 -1.98774,-0.36532 -2.61937,-1.09598 -0.63161,-0.73067 -0.94743,-1.738 -0.94743,-3.02197 0,-1.28753 0.31582,-2.29664 0.94743,-3.0273 0.63163,-0.73065 1.50476,-1.09599 2.61937,-1.09599 v 1.48439 c -0.54802,-2e-5 -0.9722,0.23055 -1.27253,0.69165 -0.30031,0.46108 -0.45048,1.11018 -0.45048,1.94725 0,0.8335 0.15017,1.48084 0.45048,1.94192 0.30033,0.4611 0.72451,0.69165 1.27253,0.69165 z"
       style="font-style:normal;font-variant:normal;font-weight:bold;font-stretch:normal;font-size:10.5833px;line-height:1.25;font-family:sans-serif;-inkscape-font-specification:'sans-serif Bold';fill:#000000;fill-opacity:1;stroke:none;stroke-width:0.254507"
       id="path1634-3" />
    <path
       d="m 187.30654,162.92322 c -0.0426,-0.32809 -0.076,-0.66357 -0.076,-1.02442 0,-0.39076 0.0327,-0.75646 0.0829,-1.10884 h -4.2335 c 0.0505,0.35437 0.0829,0.72248 0.0829,1.11575 0,0.35834 -0.0337,0.69144 -0.076,1.01751 z"
       style="font-style:normal;font-variant:normal;font-weight:bold;font-stretch:normal;font-size:10.5833px;line-height:1.25;font-family:'Segoe UI';-inkscape-font-specification:'Segoe UI Bold';fill:#000000;fill-opacity:1;stroke:none;stroke-width:0.392885"
       id="path872-9" />
  </g>
</svg>
